<?xml version="1.0" encoding="utf-8"?>
<!-- Generator: Adobe Illustrator 27.0.0, SVG Export Plug-In . SVG Version: 6.00 Build 0)  -->
<svg version="1.1" id="Layer_1" xmlns="http://www.w3.org/2000/svg" xmlns:xlink="http://www.w3.org/1999/xlink" x="0px" y="0px"
	 viewBox="0 0 116.1 26.3" style="enable-background:new 0 0 116.1 26.3;" xml:space="preserve">
<style type="text/css">
	.st0{fill:#FFFFFF;}
</style>
<g>
	<path class="st0" d="M116,14.9c-1,7.4-8.4,12.2-16.4,11.2c-7.9-1-13.5-7.6-12.3-14.8C88.4,4,95.6-0.9,103.6,0.1
		C111.5,1.2,117.1,7.6,116,14.9z"/>
	<path class="st0" d="M72.4,14.9c-1,7.4-8.4,12.2-16.4,11.2c-7.9-1-13.5-7.6-12.3-14.8C44.8,4,52-0.9,60.1,0.1
		C68,1.2,73.5,7.6,72.4,14.9z"/>
	<path class="st0" d="M28.8,14.9c-1,7.4-8.4,12.2-16.4,11.2C4.6,25.1-1,18.6,0.1,11.4C1.3,4,8.4-0.9,16.5,0.1
		C24.4,1.2,30,7.6,28.8,14.9z"/>
</g>
</svg>
