<?xml version="1.0" encoding="utf-8"?>
<!-- Generator: Adobe Illustrator 27.0.0, SVG Export Plug-In . SVG Version: 6.00 Build 0)  -->
<svg version="1.1" id="Layer_1" xmlns="http://www.w3.org/2000/svg" xmlns:xlink="http://www.w3.org/1999/xlink" x="0px" y="0px"
	 viewBox="0 0 612 792" style="enable-background:new 0 0 612 792;" xml:space="preserve">
<style type="text/css">
	.st0{fill:#FFFFFF;}
</style>
<g>
	<path class="st0" d="M206.1,380.3c-0.2,1.3-1.5,2.1-2.8,2c-1.4-0.2-2.3-1.3-2.1-2.6c0.2-1.3,1.4-2.1,2.8-2
		C205.3,377.9,206.3,379,206.1,380.3z"/>
	<path class="st0" d="M198.5,380.3c-0.2,1.3-1.5,2.1-2.8,2c-1.4-0.2-2.3-1.3-2.1-2.6c0.2-1.3,1.4-2.1,2.8-2
		C197.7,377.9,198.7,379,198.5,380.3z"/>
	<path class="st0" d="M190.9,380.3c-0.2,1.3-1.5,2.1-2.8,2c-1.4-0.2-2.3-1.3-2.1-2.6c0.2-1.3,1.4-2.1,2.8-2
		C190.1,377.9,191.1,379,190.9,380.3z"/>
</g>
</svg>
