<?xml version="1.0" encoding="utf-8"?>
<!-- Generator: Adobe Illustrator 27.0.0, SVG Export Plug-In . SVG Version: 6.00 Build 0)  -->
<svg version="1.1" id="Layer_1" xmlns="http://www.w3.org/2000/svg" xmlns:xlink="http://www.w3.org/1999/xlink" x="0px" y="0px"
	 viewBox="0 0 612 792" style="enable-background:new 0 0 612 792;" xml:space="preserve">
<style type="text/css">
	.st0{fill:#FFFFFF;}
</style>
<g>
	<path class="st0" d="M247.6,255.4c1.2,4.4,2.6,8.5,5,12.3c2.1,3.5,2.6,7.6,2.9,11.7c2,21.4,3.8,45.7,5.9,67
		c0.3,6.7,0.6,13.5,1.8,21.4c3.5-6.7,5-12.6,6.7-18.4c2.9-9.1,5-18.2,7.9-26.9c3.5-10,6.7-19.9,10.5-29.6
		c3.2-8.2,5.9-17.9,10.8-25.5c2.6-3.8,6.4-7,10.5-6.1l6.7,1.5c1.8,0.3,2.6,0.9,4.1,2.1c2.9,3.5,3.5,3.2,6.4-1.8
		c0-0.3,0.3-0.3,0.9-0.9c1.5,0.6,2.3,2.6,4.7,0.9c0.9-0.9,2.6-0.3,3.8,0.3c0.9,0.3,1.5,1.2,2.3,1.5c9.7,3.2,9.1,11.4,7.9,19.9
		l-0.9,3.2c-0.9,15.2-5.9,30.4-8.5,45.4c-2.1,12-3.8,24.3-4.4,36.3c-0.3,9.9-2.1,20.5-2.3,30.4c-0.9,13.2-4.1,26.3-5.6,39.5
		c-0.6,5.6-0.3,10.8-1.5,16.4c-1.5,6.1-4.4,8.5-10.8,7c-1.5,0.9-1.2,2.3-1.5,3.5c-1.8,2.3-3.5,2.9-6.1,2.3c-6.1-0.9-10-4.7-14.3-7.9
		c-5.3-3.8-5.9-8.8-5-14.3c1.2-8.5,1.8-16.7,4.1-25.2c1.5-5.3,1.8-10.2,1.8-15.2c1.2-18.4,4.4-36.6,5.9-55
		c1.2-17.3,4.4-34.5,4.7-51.8l-0.6-2.3c-2.9,3.5-4.4,7-5.6,10.2c-3.2,7.3-7.3,14.6-10,22c-5.3,14.9-11.1,29.6-13.5,44.8
		c-0.6,3.2-2,6.4-2.9,10c-1.2,5-4.4,9.9-3.2,14.9c0.9,5-3.5,7.6-6.1,10.8c-0.6,1.2-2,0.6-2.9,0c-1.5-0.6-3.2-1.8-5.3-1.5
		c-0.9,2.1-1.2,3.8,1.8,3.8c2.9,0.3,3.2,4.4,4.4,6.1c-1.5,1.8-2.6,1.5-4.4,1.8c-5.3,0.6-10.8,0.3-12.3-2c-2-2.9-2.6-2.6-5.6-4.4
		c-4.4-2.9-6.7-7.9-8.2-13.2c-4.1-17.9-7.9-36-10.2-54.4c-1.2-10-2-20.2-3.5-30.2c-0.3-3.2-0.6-6.4-1.5-10c0,5.9-3.8,11.4-3.5,17.3
		c0,7-2,14-2.9,21.4c-1.5,11.7-3.5,24-4.7,35.7c-0.6,10.2-1.8,20.5-1.8,30.4c0,5.9-0.3,11.7-1.8,17.6c-2.3,9.7-3.8,19.6-5.3,29.3
		c0.3,1.5,0,2.9-1.2,4.4c-2.9,3.2-5,3.8-9.1,1.5c-1.2,0.6-1.2,2.3-2.9,2.6c-0.3-0.6-1.2-0.9-0.9-1.8l1.8-16.4l5.9-34
		c2-10.2,2.9-20.5,3.5-30.7c1.2-21.1,4.4-42.4,8.2-63.5c2.6-14.9,5-32.8,7.6-48c0.6-2.1,0.6-4.4,0.9-6.4c0-2.3,1.5-3.5,3.8-4.4
		c3.8-1.2,6.7-0.9,9.7,0.3c2-0.9,2.3-2.9,3.8-4.1c4.7-4.1,5.6-4.7,10.5-2.3c3.2,1.2,6.4,2.6,7.3,6.7c0,0.6,0.6,1.2,1.8,0.9
		c1.2-2.6,0.3-5.6,2-7.9C247,253.9,247.3,254.5,247.6,255.4z M319,332.4c3.5-5.9,5-15.5,2.3-19C317.5,320.1,319.9,325.6,319,332.4z"
		/>
	<path class="st0" d="M390.7,256c11.4-1.2,22.2,0,32.2,4.1l8.2,2.9c10,3.8,13.5,12,10,23.4c-2,5.9-3.8,12-8.8,16.7
		c-6.7,6.4-13.2,12.6-21.4,17.9c-3.2,2-6.7,3.8-10,5.9c-1.5,0.9-3.8,1.2-4.4,3.5c0,1.2-1.5,2.3-2.6,2c-5-0.3-7.6,4.1-11.7,5.9
		c-2,0.9-2,3.8-4.4,5.3c8.8,0.6,17.3,1.2,26.3,2c7,0.9,14.3,1.2,20.5,4.1c9.1,3.8,16.4,9.1,22.8,16.1c2.6,3.8,2.9,7.9,0.9,12.6
		c-2,5.9-5.6,10.8-8.8,16.1c-6.7,10.2-15.8,17.3-23.4,25.5c-6.7,7.3-14,13.5-21.7,19c-2.9,2-5.6,3.5-8.5,5.3
		c-10,7-19.6,14.6-29.9,20.5c-5.6,2.9-10.2,6.1-16.1,9.7c-0.3-2-0.6-3.5-0.6-5.3c0-1.5,0-2.6-1.5-2.9c-4.1,0-5.3-2.9-5.9-6.1
		c-0.3-0.3-0.3-0.9-0.9-1.5c-4.1,2-6.1,8.2-12.3,8.5l0.3-8.2l0.3-29.3c0.3-1.2,0.3-2.6,0.9-3.8c4.4-10.2,5.3-20.8,6.7-31
		c2-12.6,4.1-24.9,5.9-37.5l4.4-33.4c0.3-3.8,1.2-7.9,2.6-12c1.8-3.2,2.1-6.4,2.3-9.7c1.8-7.6,2.9-15.2,4.4-22.5
		c0.3-3.8,0-4.1-3.5-4.7c-2.6,0-5.6-0.3-8.2,0.9c-2.6,0.9-3.8-0.6-4.4-2.6c0-1.5-0.3-3.2-0.3-5.3c0-2,1.2-3.8,3.5-4.4
		c2.6-0.3,5.6-1.2,8.2-1.5L390.7,256z M366.1,358.1c1.5,1.5,4.7,0,4.7,2.6c-1.5,1.8-3.8,0.9-5.6,1.8c-2.1,6.4-2.1,13.5-2.9,19.9
		c-1.5,6.7-1.2,13.5-2.3,20.2c-0.9,6.4-1.2,13.2-1.8,19.6c-0.3,6.4-2,13.2-1.5,19.6c6.4-4.1,11.7-8.8,17.9-11.4c2-0.6,3.8-2,4.7-4.1
		c0.9-1.8,2.3-3.5,3.2-4.7c6.7-9.7,14.6-18.1,20.5-28.4c2.9-5.6,5.6-11.1,8.8-16.7c2.9-4.4,2.9-5.3-0.9-9.4c-1.5-2-3.5-2.9-6.1-3.5
		c-6.7-2-13.8-1.5-20.8-1.5c-2.6-0.3-2.6-0.3-5-2.3c7.6,0.3,14.6,1.8,22.8,0.6c-1.2-3.2-4.1-2.9-6.1-2.3c-5,0.3-9.4-0.6-13.8-2
		C377.3,355.2,372,355.8,366.1,358.1z M379.9,277.9c-2.6,14-4.7,28.7-8.2,42.7c-0.6,2.6-2,5.3-1.5,8.5c6.1-2.3,11.7-4.1,15.2-9.4
		c0.3-0.6,1.8-1.2,2.3-1.5c12.9-8.8,21.4-21.1,31-32.8c3.5-4.1,2.3-6.7-2.3-7.3c-5.6,0-10.5-1.8-15.2-4.1
		c-4.7-2.6-11.1-1.8-17.6-0.3C381.1,274.4,379.9,275,379.9,277.9z"/>
</g>
</svg>
